<svg xmlns="http://www.w3.org/2000/svg" viewBox="0 0 1582 265" fill-rule="nonzero" stroke-linejoin="round" stroke-miterlimit="2" fill="#231f20"><path d="M129.8 48.251V6.255H.8v248.996h129v-42h-81v-65.996h78v-42.004h-78v-57h81zm219 102c32.158-4.775 49.817-36.638 51-68.996-1.183-52.942-35.5-74.846-84-75h-66v248.996h48v-98.996l60 98.996h60l-69-105zm-51-105h6c26.188.988 45.842 6.963 45 39 .842 29.363-18.146 37.325-45 36h-6v-75zm270-38.996h-48v248.996h117v-42h-69V6.255zm315.001 197.996l21 51h51l-93-255h-39l-99 255h51l21-51h87zm-12-38.996h-60l27-93 33 93zm174 89.996h51v-168l132 174h36V6.255h-51v168l-132-174.004h-36v255zm429-132v39h54c-1.125 31.346-26.775 57.9-57 57-47.733.9-71.388-45.233-72-87 .613-41.208 23.933-89.333 72-89.996 25.225.663 46.55 17.921 57 39l42-21.004c-18.471-38.904-55.783-60.479-99-60-74.388-.479-122.025 60.921-123 132 .975 69.313 47.283 131.046 120 132 78.533-.954 114.846-63.683 114-135v-6h-108z"/></svg>