<?xml version="1.0" encoding="UTF-8" standalone="no"?>
<!DOCTYPE svg PUBLIC "-//W3C//DTD SVG 1.0//EN" "http://www.w3.org/TR/2001/PR-SVG-20010719/DTD/svg10.dtd">
<svg width="25cm" height="20cm" viewBox="62 27 500 397" xmlns="http://www.w3.org/2000/svg" xmlns:xlink="http://www.w3.org/1999/xlink">
  <text font-size="22.5778" style="fill: #000000;text-anchor:start;font-family:sans-serif;font-style:normal;font-weight:normal" x="62" y="179">
    <tspan x="62" y="179">A</tspan>
  </text>
  <text font-size="33.8667" style="fill: #000000;text-anchor:start;font-family:sans-serif;font-style:normal;font-weight:normal" x="196" y="59">
    <tspan x="196" y="59">+</tspan>
  </text>
  <text font-size="33.8667" style="fill: #000000;text-anchor:start;font-family:sans-serif;font-style:normal;font-weight:normal" x="361" y="187">
    <tspan x="361" y="187">*</tspan>
  </text>
  <text font-size="33.8667" style="fill: #000000;text-anchor:start;font-family:sans-serif;font-style:normal;font-weight:normal" x="207" y="267">
    <tspan x="207" y="267">*</tspan>
  </text>
  <text font-size="33.8667" style="fill: #000000;text-anchor:start;font-family:sans-serif;font-style:normal;font-weight:normal" x="457" y="281">
    <tspan x="457" y="281">+</tspan>
  </text>
  <text font-size="22.5778" style="fill: #000000;text-anchor:start;font-family:sans-serif;font-style:normal;font-weight:normal" x="533" y="419">
    <tspan x="533" y="419">42</tspan>
  </text>
  <text font-size="22.5778" style="fill: #000000;text-anchor:start;font-family:sans-serif;font-style:normal;font-weight:normal" x="362" y="419">
    <tspan x="362" y="419">D</tspan>
  </text>
  <text font-size="22.5778" style="fill: #000000;text-anchor:start;font-family:sans-serif;font-style:normal;font-weight:normal" x="82" y="419">
    <tspan x="82" y="419">B</tspan>
  </text>
  <text font-size="22.5778" style="fill: #000000;text-anchor:start;font-family:sans-serif;font-style:normal;font-weight:normal" x="273" y="419">
    <tspan x="273" y="419">C</tspan>
  </text>
  <g>
    <line style="fill: none; fill-opacity:0; stroke-width: 2; stroke: #000000" x1="186.643" y1="70.9492" x2="101.75" y2="143.715"/>
    <polygon style="fill: #000000" points="96.0552,148.596 100.394,138.291 101.75,143.715 106.902,145.884 "/>
    <polygon style="fill: none; fill-opacity:0; stroke-width: 2; stroke: #000000" points="96.0552,148.596 100.394,138.291 101.75,143.715 106.902,145.884 "/>
  </g>
  <g>
    <line style="fill: none; fill-opacity:0; stroke-width: 2; stroke: #000000" x1="235.705" y1="69.4038" x2="337.506" y2="145.755"/>
    <polygon style="fill: #000000" points="343.506,150.255 332.506,148.255 337.506,145.755 338.506,140.255 "/>
    <polygon style="fill: none; fill-opacity:0; stroke-width: 2; stroke: #000000" points="343.506,150.255 332.506,148.255 337.506,145.755 338.506,140.255 "/>
  </g>
  <g>
    <line style="fill: none; fill-opacity:0; stroke-width: 2; stroke: #000000" x1="340" y1="180" x2="252.19" y2="230.837"/>
    <polygon style="fill: #000000" points="245.7,234.595 251.849,225.258 252.19,230.837 256.859,233.912 "/>
    <polygon style="fill: none; fill-opacity:0; stroke-width: 2; stroke: #000000" points="245.7,234.595 251.849,225.258 252.19,230.837 256.859,233.912 "/>
  </g>
  <g>
    <line style="fill: none; fill-opacity:0; stroke-width: 2; stroke: #000000" x1="392.772" y1="192.772" x2="441.344" y2="241.344"/>
    <polygon style="fill: #000000" points="446.647,246.647 436.041,243.112 441.344,241.344 443.112,236.041 "/>
    <polygon style="fill: none; fill-opacity:0; stroke-width: 2; stroke: #000000" points="446.647,246.647 436.041,243.112 441.344,241.344 443.112,236.041 "/>
  </g>
  <g>
    <line style="fill: none; fill-opacity:0; stroke-width: 2; stroke: #000000" x1="196.997" y1="276.111" x2="116.05" y2="378.259"/>
    <polygon style="fill: #000000" points="111.392,384.137 113.684,373.194 116.05,378.259 121.521,379.405 "/>
    <polygon style="fill: none; fill-opacity:0; stroke-width: 2; stroke: #000000" points="111.392,384.137 113.684,373.194 116.05,378.259 121.521,379.405 "/>
  </g>
  <g>
    <line style="fill: none; fill-opacity:0; stroke-width: 2; stroke: #000000" x1="228.422" y1="280.662" x2="265.894" y2="372.326"/>
    <polygon style="fill: #000000" points="268.732,379.268 260.32,371.904 265.894,372.326 269.576,368.119 "/>
    <polygon style="fill: none; fill-opacity:0; stroke-width: 2; stroke: #000000" points="268.732,379.268 260.32,371.904 265.894,372.326 269.576,368.119 "/>
  </g>
  <g>
    <line style="fill: none; fill-opacity:0; stroke-width: 2; stroke: #000000" x1="452.214" y1="296.101" x2="394.445" y2="376.977"/>
    <polygon style="fill: #000000" points="390.086,383.08 391.83,372.036 394.445,376.977 399.967,377.849 "/>
    <polygon style="fill: none; fill-opacity:0; stroke-width: 2; stroke: #000000" points="390.086,383.08 391.83,372.036 394.445,376.977 399.967,377.849 "/>
  </g>
  <g>
    <line style="fill: none; fill-opacity:0; stroke-width: 2; stroke: #000000" x1="485.511" y1="298.151" x2="526.844" y2="374.292"/>
    <polygon style="fill: #000000" points="530.422,380.883 521.257,374.48 526.844,374.292 530.046,369.709 "/>
    <polygon style="fill: none; fill-opacity:0; stroke-width: 2; stroke: #000000" points="530.422,380.883 521.257,374.48 526.844,374.292 530.046,369.709 "/>
  </g>
</svg>
